PathFileType	4	(X/Y/Z)	Patient4_TMGait_0pt6_01_right_38.trc.trc
DataRate	CameraRate	NumFrames	NumMarkers	Units	OrigDataRate	OrigDataStartFrame	OrigNumFrames
83.832335329341	83.832335329341	6	33	mm	83.832335329341	18	       141
Frame#	Time	Sacral			L.Shoulder			Chest			R.Shoulder			Neck			R.ASIS			L.ASIS			R.Thigh.Superior			R.Thigh.Lateral			R.Thigh.Inferior			R.Patella			L.Thigh.Superior			L.Thigh.Lateral			L.Thigh.Inferior			L.Patella			L.Shank.Superior			L.Shank.Lateral			L.Shank.Inferior			R.Shank.Superior			R.Shank.Lateral			R.Shank.Inferior			R.Heel			R.Midfoot.Superior			R.Midfoot.Lateral			R.Toe			L.Heel			L.Midfoot.Lateral			L.Midfoot.Superior			L.Toe			L.Elbow			L.Wrist			R.Elbow			R.Wrist			
		X1	Y1	Z1	X2	Y2	Z2	X3	Y3	Z3	X4	Y4	Z4	X5	Y5	Z5	X6	Y6	Z6	X7	Y7	Z7	X8	Y8	Z8	X9	Y9	Z9	X10	Y10	Z10	X11	Y11	Z11	X12	Y12	Z12	X13	Y13	Z13	X14	Y14	Z14	X15	Y15	Z15	X16	Y16	Z16	X17	Y17	Z17	X18	Y18	Z18	X19	Y19	Z19	X20	Y20	Z20	X21	Y21	Z21	X22	Y22	Z22	X23	Y23	Z23	X24	Y24	Z24	X25	Y25	Z25	X26	Y26	Z26	X27	Y27	Z27	X28	Y28	Z28	X29	Y29	Z29	X30	Y30	Z30	X31	Y31	Z31	X32	Y32	Z32	X33	Y33	Z33	

18	45.912785714286	721.201933771161	1004.361332382130	416.352943534121	907.985749222435	1437.705507323866	251.543024985551	1000.867397243637	1362.808075434158	415.061485426589	909.349509996250	1431.194512069800	585.678731961372	882.013641410913	1493.505954725465	405.974004418771	946.017332626230	941.790546975248	539.403740062460	936.907000951449	959.765720797429	264.103993560392	1020.519804991851	771.443985534559	508.327185660137	984.397223757857	648.603755654565	581.614081648606	1069.541367710184	612.411674729527	496.800868801118	1105.842277118210	525.994909874690	514.600308363382	941.505517124731	731.222206704213	295.776577391052	822.793704325780	635.809786066964	239.300956252448	884.293249212902	543.720149874155	303.591000101276	869.193743071424	478.232437456802	315.655594925945	838.336493813613	412.126532969769	310.557448163891	737.595368431193	304.043975880537	267.053063853368	780.859793137396	191.753903803533	342.380200290153	1083.884886893757	437.869827819409	523.819278972770	1025.412356357639	325.834266960365	585.343883279193	1089.709873178666	237.412487160435	532.230216576710	987.623330420652	56.035575144027	498.748624356795	1152.589848589149	119.986007776038	543.049064377389	1069.262949556971	49.597606757158	575.621836588947	1274.334019337627	76.400540095067	574.891161212383	644.797219277003	40.590566175756	396.350357092074	716.081164476410	35.215817796133	313.941814963931	801.079258594248	95.797780870202	335.941924218173	928.045104347419	40.075177035639	305.337587032085	987.969643457634	1111.461532190295	101.371817944040	1238.178879477733	1043.715441795434	106.405654009345	748.685670984573	1124.521919756566	678.854043548241	702.099928586295	868.196706800292	692.258686346253	
19	45.924714285714	722.153171795840	1002.762495719689	417.532260827315	907.837149587526	1436.291599749552	252.435924315210	1000.667006268181	1361.911497736543	416.172358033425	908.808629757983	1430.360086911866	586.591842844751	881.507304599725	1492.284830678160	406.765258707939	946.634878685478	940.270829576180	540.905888374675	938.027788042039	958.770006398530	265.478790199436	1019.306150092172	767.613787133213	510.441670785257	980.557280683074	644.956490182711	582.603353017290	1065.761666081590	608.219360510277	498.220617206615	1101.036551321061	522.959051895792	515.163678082731	940.705528729880	729.985051052623	296.482254002143	820.973443606936	635.561505611336	239.955521750499	881.691977749232	542.859464251836	303.959350949824	865.880785637940	477.210040867420	315.937392366956	834.391231029623	411.508423092536	310.693814397734	732.328364050414	304.544018642141	267.203009986478	774.704438010790	191.654267581521	342.169127485539	1081.043829496562	435.031108441211	524.197768290737	1024.660370694801	321.312708451810	584.565297693117	1091.561449248729	234.652171928896	531.486502097147	993.706229933536	51.603649036139	496.345567683109	1157.439147544983	117.971750152903	542.047842958392	1074.787913340247	46.619215318710	573.903880984986	1279.483909660379	76.207585803531	574.768942594134	637.596729711488	41.018620260194	396.128463673822	708.923716163985	35.315448978071	313.846986498800	793.987913140977	95.845676802766	335.752289972575	920.850042988263	39.914012101493	305.333411232203	989.141862260489	1110.254448694176	102.774350894437	1239.856806551027	1044.925063534996	108.645313399065	748.820496210424	1123.559035620765	680.203462922248	702.266793012904	867.307786182010	694.238865739052	
20	45.936642857143	723.295867830829	1001.167936416361	418.957799734500	907.500180229685	1434.869518664003	253.448099361900	1000.463638924783	1361.095370749954	417.336120946932	908.303153797394	1429.486444490351	587.639866478359	880.936525285906	1491.050392086524	407.685142130608	947.501051163481	938.696368310402	542.518864671964	939.289580172588	957.777316242316	267.014987152403	1018.624941973527	763.995671391873	512.638949931427	977.172237076740	641.413907411219	583.463806424788	1062.635860819500	604.323077605668	499.653778386591	1096.647107211500	519.847761436321	515.642477504339	940.155244098111	728.763337986535	297.288474409146	819.399160180213	635.323582492243	240.755100994814	879.384243472168	541.992037905255	304.431817833667	862.883939576154	476.141913722606	316.334767488402	830.707533392164	410.840267663682	310.931317054524	727.237700653926	305.107665353786	267.444637380430	768.656412303728	191.580476905247	341.994789322450	1078.051413031304	431.992489931592	524.446773008148	1022.807258593142	317.130614928563	583.522117606264	1091.594992436922	231.785609463313	530.576382697648	996.514256382109	48.178212005140	493.751254867192	1159.427102928926	115.630813051741	540.974990732034	1076.873634636788	44.093915020298	572.073717334932	1281.310564272520	74.785141571585	574.613920449251	630.400226249374	41.535329371075	395.895958112084	701.776831851004	35.457929188054	313.742574774425	786.918757456811	95.932372514481	335.548076563860	913.665891715829	39.741352943631	305.306658268081	989.860353095358	1108.841401402567	104.376820122322	1240.910138158039	1045.104340694009	110.900577736981	749.829063552333	1122.026278013066	681.800555376550	704.041153641469	865.701676695966	696.322888023022	
21	45.948571428571	724.608707994878	999.620701752609	420.620941064661	907.004605261571	1433.464681988550	254.598029949421	1000.281616780546	1360.375268246573	418.571723860890	907.857323526378	1428.591464631921	588.842983140877	880.332154719922	1489.829240969965	408.753554103338	948.610217344233	937.094560184761	544.228165264145	940.664739405365	956.812636594156	268.702382124095	1018.527729018452	760.676062589450	514.851121208820	974.335927902717	638.064891198705	584.159254914086	1060.246872043402	600.821736771396	501.042753876758	1092.795414011323	516.755912181344	515.978396950659	939.851769609250	727.576387843656	298.180582614880	818.086165528148	635.094332062769	241.698391762649	877.407162752233	541.121235582590	305.005991609340	860.262805422739	475.021018334253	316.832500350929	827.315882875192	410.117750633535	311.270563501321	722.352040933758	305.740921100175	267.781617278988	762.723390290503	191.535580157618	341.867116105431	1075.053086761302	428.834869420609	524.532445479636	1020.104950982828	313.320228044754	582.320059485076	1090.036595155728	228.817958462273	529.533072853475	996.288495031932	45.590561776969	491.151334384096	1158.797346142034	113.015254373374	539.879166360911	1075.848168053438	41.971755062939	570.275028017489	1280.181968025677	72.328746264577	574.437985382219	623.211492469462	42.159019444452	395.659902442775	694.641953446500	35.647143393660	313.629695345065	779.884838889617	96.056483271248	335.324449014816	906.499483071211	39.560508756798	305.253009618213	990.111794422980	1107.239601600651	106.176792459460	1241.336078525416	1044.257246551029	113.145147249780	751.637818881108	1120.002123138984	683.624956485278	707.323189033302	863.467881120634	698.532453879316	
22	45.960500000000	726.063013005053	998.166339058818	422.506673700700	906.389911220801	1432.112648998151	255.904157973483	1000.147876507150	1359.768103987939	419.898590801880	907.504792581288	1427.702070270485	590.219904826203	879.732521955310	1488.658326632101	409.990327324464	949.947415261594	935.508698039126	546.012231195941	942.116603980859	955.909530051859	270.521697234089	1019.031900962119	757.730274943037	516.999841556262	972.125925421154	635.006359168306	584.676969500121	1058.630087973681	597.794759611118	502.329605645327	1089.566664993794	513.780680146732	516.131370382653	939.797213950872	726.453409588638	299.138795663343	817.064856839597	634.870486563610	242.780272237401	875.823892540283	540.254625102340	305.674077977435	858.104571984390	473.836664506075	317.404089717192	824.267040362857	409.338040396920	311.704121462092	717.713637450534	306.457872937190	268.216025376981	756.922733377008	191.526682443314	341.790623533215	1072.188058094371	425.664377071745	524.446599199185	1016.853194404877	309.927724593757	581.089089077636	1087.191751522884	225.805152155844	528.408896701917	993.438050808386	43.687889731450	488.730743515968	1155.915883079900	110.238186295523	538.802975419577	1072.204026471299	40.222190174715	568.640684263307	1276.598293935433	69.133569236617	574.243522048019	616.037291334785	42.919403224644	395.425590557371	687.521742666440	35.889643909514	313.509677843685	772.906788374591	96.214115531279	335.071891442983	899.358161706322	39.376209597297	305.170347051119	989.883889264261	1105.476485008425	108.175010308603	1241.121033612893	1042.397331299990	115.352908624065	754.176932007931	1117.582295022616	685.650959181267	712.008469759985	860.720400027022	700.894737377171	
23	45.972428571429	727.621768269894	996.853166081710	424.593353068378	905.701755278688	1430.859788971790	257.382671230947	1000.088478076522	1359.293063041364	421.334310751283	907.284730254578	1426.854943677143	591.785318825002	879.178891730361	1487.584468511278	411.413104790113	951.487709051237	933.998059285224	547.845453238216	943.601596788242	955.109167835628	272.446357691757	1020.116179038599	755.224183656836	519.002156812594	970.601916475618	632.339346585296	585.030448560480	1057.771041935316	595.299456285477	503.461361232836	1087.005297057044	511.018866469443	516.090596661729	940.001329271010	725.433420228662	300.141803288794	816.382983654148	634.647551816548	243.991735642328	874.726018972221	539.404105486882	306.421871810608	856.524892721774	472.576359475369	318.010185884381	821.635314400560	408.500723440170	312.214263326540	713.380938853773	307.282651817834	268.747209178457	751.286618934283	191.567573534053	341.760913458453	1069.576503417146	422.604698217622	524.210152968907	1013.361539463295	307.007856838351	579.965857834335	1083.409711967016	222.845035622731	527.270330837202	988.488723127795	42.341207982615	486.644135840962	1151.228807538600	107.454512983161	537.779657755147	1066.536766301265	38.825934814686	567.274243449635	1271.135663450123	65.549915666986	574.032817703313	608.889489986468	43.863532926529	395.194638188731	680.421316951532	36.198599973800	313.383671111790	766.014351842176	96.400004637652	334.776022136460	892.248627601321	39.193861593162	305.059903061005	989.164659816622	1103.590878704390	110.376724712379	1240.239192078230	1039.546562556862	117.499572520252	757.385062926782	1114.873585515518	687.850496807688	717.999818709582	857.590556068107	703.438436757074	
